<svg xmlns="http://www.w3.org/2000/svg" viewBox="0 0 502 212.8"><defs><style>.a{fill:none;stroke:#a6a6a6;stroke-width:2px;}.b{isolation:isolate;font-size:46.47px;fill:gray;font-family:ArialMT, Arial;}.c{fill:#191717;fill-rule:evenodd;}.d{fill:#100f10;}</style></defs><title>Asset 7</title><path class="a" d="M486.5,211.8H15.5A14.5,14.5,0,0,1,1,197.4V15.5A14.5,14.5,0,0,1,15.5,1h471A14.5,14.5,0,0,1,501,15.5V197.4A14.5,14.5,0,0,1,486.5,211.8Z"/><text class="b" transform="translate(205.3 68)">powered by</text><path class="c" d="M99.7,31A77.1,77.1,0,0,0,75.4,181.3c3.8.7,5.2-1.7,5.2-3.7s0-6.7-.1-13.1c-21.4,4.6-25.9-10.3-25.9-10.3-3.6-9-8.6-11.3-8.6-11.3-7-4.8.5-4.7.5-4.7,7.8.5,11.8,7.9,11.8,7.9,6.9,11.8,18.1,8.4,22.5,6.4.7-4.9,2.7-8.3,4.9-10.3-17.2-1.9-35.2-8.5-35.2-38.1a29.6,29.6,0,0,1,8-20.7c-.8-1.9-3.5-9.8.7-20.4,0,0,6.5-2.1,21.2,7.9a78.1,78.1,0,0,1,19.3-2.6,78.2,78.2,0,0,1,19.4,2.6c14.7-10,21.1-7.9,21.1-7.9,4.2,10.6,1.6,18.5.8,20.4a30,30,0,0,1,7.9,20.7c0,29.6-18,36.2-35.2,38.1,2.8,2.4,5.3,7.1,5.3,14.3,0,10.3-.1,18.6-.1,21.1s1.4,4.5,5.3,3.7A77.1,77.1,0,0,0,99.7,31Z"/><path class="d" d="M249.5,136.4H226.6a1,1,0,0,0-1,1.1v11.2a.9.9,0,0,0,1,1h8.9v13.9s-2,.7-7.5.7-15.7-2.4-15.7-22.4,9.5-22.8,18.5-22.8,11,1.4,13.1,2.1a1.1,1.1,0,0,0,1.3-1.1l2.6-10.8a.9.9,0,0,0-.4-.8c-.9-.6-6.1-3.6-19.4-3.6-15.3,0-30.9,6.5-30.9,37.7s17.9,35.9,33,35.9c12.5,0,20.1-5.3,20.1-5.3a1,1,0,0,0,.4-.8V137.5A1.1,1.1,0,0,0,249.5,136.4Z"/><path class="d" d="M367.3,108.7a1,1,0,0,0-1-1.1H353.4a1.1,1.1,0,0,0-1.1,1.1v24.9h-20V108.7a1.1,1.1,0,0,0-1.1-1.1H318.3a1,1,0,0,0-1,1.1V176a1,1,0,0,0,1,1.1h12.9a1.1,1.1,0,0,0,1.1-1.1V147.2h20V176a1.1,1.1,0,0,0,1.1,1.1h12.9a1,1,0,0,0,1-1.1Z"/><path class="d" d="M273.8,117.5a8.3,8.3,0,1,0-8.3,8.4A8.4,8.4,0,0,0,273.8,117.5Z"/><path class="d" d="M272.9,161.8V130.7a1,1,0,0,0-1.1-1H259a1.2,1.2,0,0,0-1.1,1.2v44.5c0,1.3.8,1.7,1.8,1.7h11.6c1.3,0,1.6-.6,1.6-1.7Z"/><path class="d" d="M416.3,129.8H403.5a1,1,0,0,0-1.1,1v33.1a14.5,14.5,0,0,1-7.8,2.3c-4.6,0-5.9-2-5.9-6.6V130.8a.9.9,0,0,0-1-1h-13a.9.9,0,0,0-1,1v31c0,13.4,7.4,16.7,17.7,16.7a30.2,30.2,0,0,0,15.2-4.6,17.6,17.6,0,0,0,.5,2.7,1,1,0,0,0,.9.6h8.3a.9.9,0,0,0,1-1V130.8A.9.9,0,0,0,416.3,129.8Z"/><path class="d" d="M451.2,128.2a23.6,23.6,0,0,0-12.2,3.3V108.7a1.1,1.1,0,0,0-1.1-1.1H425a1,1,0,0,0-1,1.1V176a1,1,0,0,0,1,1.1h9a1.1,1.1,0,0,0,.9-.5,28.5,28.5,0,0,0,.6-3.2s5.2,5,15.2,5c11.8,0,18.5-5.9,18.5-26.7S458.5,128.2,451.2,128.2Zm-5,38a15.2,15.2,0,0,1-7.5-2.1V142.7a17.2,17.2,0,0,1,6.6-2.1c4.6-.4,9.1,1,9.1,11.9S452.4,166.4,446.2,166.2Z"/><path class="d" d="M309.9,129.7h-9.7V116.9c0-.5-.3-.7-.8-.7H286.2c-.5,0-.8.2-.8.7v13.2l-7,1.7a1.1,1.1,0,0,0-.8,1v8.3a1.1,1.1,0,0,0,1.1,1.1h6.7v19.9c0,14.8,10.4,16.3,17.4,16.3a30.5,30.5,0,0,0,7.7-1.3.9.9,0,0,0,.6-1V167a1,1,0,0,0-1.1-1l-3.4.2c-4.8,0-6.4-2.2-6.4-5.1V142.2h9.7a1,1,0,0,0,1-1.1V130.7A.9.9,0,0,0,309.9,129.7Z"/></svg>