<svg xmlns="http://www.w3.org/2000/svg" viewBox="0 0 502 212.8"><defs><style>.a{fill:#fff;}.b{fill:none;stroke:#a6a6a6;stroke-width:2px;}.c{fill:#4a86cf;}.d{fill:#7b7979;}</style></defs><title>Asset 6</title><path class="a" d="M486.5,211.8H15.5A14.5,14.5,0,0,1,1,197.4V15.5A14.5,14.5,0,0,1,15.5,1h471A14.5,14.5,0,0,1,501,15.5V197.4A14.5,14.5,0,0,1,486.5,211.8Z"/><path class="b" d="M486.5,211.8H15.5A14.5,14.5,0,0,1,1,197.4V15.5A14.5,14.5,0,0,1,15.5,1h471A14.5,14.5,0,0,1,501,15.5V197.4A14.5,14.5,0,0,1,486.5,211.8Z"/><path class="c" d="M149.6,31.2c-31.3,0-37.2,44.6-19.6,44.6S180.9,31.2,149.6,31.2Zm-52,39.1c9.4.6,19.7-35.8,2.1-33.5S88.2,69.7,97.6,70.3ZM54.7,92.8c6.7-2.9.9-31.6-10.4-23.7S48.1,95.8,54.7,92.8ZM73.5,77.9c8-1.6,8.3-34.1-5.8-28.3S65.6,79.4,73.5,77.9Zm41.4,72.7c1.4,10.8-7.9,16.1-17,9.2-28.9-22.1,47.9-33,42.9-63.1-4.3-25-81-17.4-89.7,21.8C45.2,145,75.5,181.6,107,181.6c15.6,0,33.5-14,36.8-31.8C146.4,136.2,113.8,141.6,114.9,150.6Z"/><path class="d" d="M194.5,46.5c0-6.2,3.7-9.9,8.7-9.9a7.4,7.4,0,0,1,5.4,2.3l-1.3,1.6a5.4,5.4,0,0,0-4.1-1.8c-3.9,0-6.3,2.8-6.3,7.7s2.3,7.7,6.3,7.7a4.9,4.9,0,0,0,3.3-1.1V48h-3.9V46h6.2v8c-1.2,1.3-3.2,2.1-5.9,2.1C198,56.4,194.5,52.7,194.5,46.5ZM212,49c0-4.6,3.1-7.3,6.2-7.3s5.7,2.5,5.7,6.6a4.9,4.9,0,0,1-.1,1.3h-9.5c.1,3,2,5,4.7,5a6.5,6.5,0,0,0,3.4-1.1l.9,1.5a7.8,7.8,0,0,1-4.7,1.5C215,56.4,212,53.6,212,49Zm9.8-1.2c0-2.8-1.3-4.3-3.5-4.3s-3.7,1.5-3.9,4.3Zm5.7,3.9V43.8h-2V42h2.1l.3-4h1.9v4h3.9v1.9h-3.9v7.9c0,1.6.6,2.7,2.2,2.7l1.5-.3.5,1.8a10.9,10.9,0,0,1-2.6.5C228.5,56.4,227.5,54.4,227.5,51.7Zm14.7-14.1a1.7,1.7,0,0,1,3.4,0,1.6,1.6,0,0,1-1.7,1.5C242.9,39,242.2,38.4,242.2,37.6Zm.4,4.3H245V56h-2.4Zm7.1,9.8V43.8h-2.1V42h2.2l.2-4h2v4h3.8v1.9H252v7.9c0,1.6.6,2.7,2.1,2.7l1.6-.3.5,1.8a11.7,11.7,0,0,1-2.7.5C250.8,56.4,249.7,54.4,249.7,51.7ZM263.8,49c0-4.7,3-7.3,6.5-7.3s6.5,2.6,6.5,7.3-3,7.4-6.5,7.4S263.8,53.7,263.8,49Zm10.6,0c0-3.2-1.7-5.4-4.1-5.4s-4.1,2.2-4.1,5.4,1.7,5.4,4.1,5.4S274.4,52.3,274.4,49Zm5.6-7.1h2l.2,2.1h.1c1.4-1.4,2.8-2.5,4.7-2.5s4.4,2,4.4,5.6V56H289V47.4c0-2.6-.9-3.7-2.7-3.7s-2.4.7-3.9,2.2V56H280Z"/><path d="M311,81.7c-7,.2-12.4,2.6-16.4,7.2s-6.3,11.6-6.3,20.1,2.1,15.2,6.3,20.1,9.9,7.3,17.2,7.3,13.2-2.4,17.3-7.3,6.2-11.5,6.2-20.1-2-15.3-6.2-20.1-9.9-7.2-17.3-7.2Zm.5,9.8h.3a9.8,9.8,0,0,1,8.5,4.6c1.9,3,3,7.4,3,13s-1,9.9-3,12.9a9.7,9.7,0,0,1-8.5,4.6,9.5,9.5,0,0,1-8.3-4.6c-1.9-3-3-7.3-3-12.9s1-9.8,3-13A9.9,9.9,0,0,1,311.5,91.5Zm-78.8,40c-6.2,5.1-15.2,5-18.9,5-7.6,0-13.6-2.4-18.1-7.4s-6.6-11.5-6.6-20S191.4,94,195.8,89s10.7-7.3,18.7-7.3a41.4,41.4,0,0,1,8.7.9,37.5,37.5,0,0,1,7.9,2.9L228,94.7l-4.5-2.1a24.6,24.6,0,0,0-7.6-1.2c-4.7,0-8.3,1.6-10.8,4.6s-3.9,7.3-3.9,13,1.2,9.9,3.8,13,6.1,4.6,10.5,4.6,7.1-1.1,8.5-2.2v-9.1h-9.5v-9.2h18.4m7.9-23.5h7.4l23.5,31.8V82.6h10.1v52.9h-7.4l-23.5-31.8v31.8H240.8V82.6m102.4,0h14.9l10.5,33,10.5-33h12.6l5.8,52.9H386.3l-3.5-33.1-10.5,33.2h-7.4l-10.6-34.3-3.4,34.2H339.7l5.8-52.9m60,0h31.9V93H417.3v10.8h15.4v9.3H417.3v12.1H438v10.3H405.5V82.6"/><path d="M196.9,151.9h14.8v1.3H198.5v9.9h12.3v1.3H198.5v11h13.2v1.3H196.9Zm31.2,11.8-7.9-11.8H222l7,10.6,7.3-10.6H238l-8.3,11.7,9,12.9h-1.8l-8.2-11.7-7.9,11.7h-1.7ZM254,153.2h-8.7v-1.3h19v1.3h-8.7v23.3H254Zm18.7-1.3h14.8v1.3H274.3v9.9h12.2v1.3H274.3v11h13.2v1.3H272.7Zm23.5,0H298l15.9,22.7V151.9h1.4v24.6h-1.8l-15.9-22.8v22.8h-1.4ZM324.5,175l.5-1.2a19.9,19.9,0,0,0,7.7,1.7c4.3,0,7-2,7-5.2,0-7.3-14.8-3.8-14.8-12.3,0-3.9,3.3-6.5,8.6-6.5a15.5,15.5,0,0,1,6.5,1.4l-.4,1.2a15.2,15.2,0,0,0-6.3-1.4c-4.5,0-7,1.9-7,5,0,7.3,14.8,3.7,14.8,12.2,0,4.1-3.4,6.7-8.7,6.7A16,16,0,0,1,324.5,175ZM350,151.9h1.5v24.6H350Zm11.2,12.5c0-7.4,4.6-12.6,11.5-12.6s11.2,4.9,11.2,12.4-4.6,12.6-11.5,12.6S361.2,171.8,361.2,164.4Zm21.1,0c0-6.7-4-11.3-9.9-11.3s-9.6,4.5-9.6,11.1,3.9,11.3,9.9,11.3S382.3,171.1,382.3,164.4Zm10.9-12.5H395l15.9,22.7V151.9h1.4v24.6h-1.7l-16-22.8v22.8h-1.4ZM421.4,175l.4-1.2a20.3,20.3,0,0,0,7.8,1.7c4.3,0,6.9-2,6.9-5.2,0-7.3-14.8-3.8-14.8-12.3,0-3.9,3.4-6.5,8.7-6.5a15.5,15.5,0,0,1,6.5,1.4l-.5,1.2a14.8,14.8,0,0,0-6.2-1.4c-4.5,0-7,1.9-7,5,0,7.3,14.8,3.7,14.8,12.2,0,4.1-3.4,6.7-8.7,6.7A16.2,16.2,0,0,1,421.4,175Z"/></svg>