<?xml version="1.0" encoding="UTF-8" standalone="no"?>
<!-- Created with Inkscape (http://www.inkscape.org/) -->

<svg
   xmlns:dc="http://purl.org/dc/elements/1.1/"
   xmlns:cc="http://creativecommons.org/ns#"
   xmlns:rdf="http://www.w3.org/1999/02/22-rdf-syntax-ns#"
   xmlns:svg="http://www.w3.org/2000/svg"
   xmlns="http://www.w3.org/2000/svg"
   xmlns:xlink="http://www.w3.org/1999/xlink"
   xmlns:sodipodi="http://sodipodi.sourceforge.net/DTD/sodipodi-0.dtd"
   xmlns:inkscape="http://www.inkscape.org/namespaces/inkscape"
   width="500"
   height="150"
   viewBox="0 0 132.29166 39.687501"
   version="1.1"
   id="svg8"
   inkscape:version="0.92.2 (unknown)"
   sodipodi:docname="indicators.svg">
  <defs
     id="defs2">
    <symbol
       id="spotify">
      <title
         id="title24249">Spotify</title>
      <path
         style="stroke-width:0.26458332"
         inkscape:connector-curvature="0"
         d="M 2.6458333,0.3175 C 1.3596937,0.3175 0.3175,1.3594292 0.3175,2.6458333 c 0,1.2856104 1.0421937,2.3283334 2.3283333,2.3283334 1.2864042,0 2.3280688,-1.0424584 2.3280688,-2.3283334 0,-1.2861396 -1.0414,-2.3283333 -2.3280688,-2.3283333 z m 0.9202209,3.5194875 c -0.045773,0 -0.077787,-0.017463 -0.1113896,-0.037835 C 3.140075,3.6083875 2.7503437,3.508375 2.3280687,3.508375 c -0.2153708,0 -0.4479395,0.025665 -0.6905625,0.075406 l -0.029633,0.00741 c -0.030692,0.00741 -0.062177,0.01561 -0.086254,0.01561 -0.09816,0 -0.1748895,-0.0762 -0.1748895,-0.1735667 0,-0.09869 0.055562,-0.1685396 0.1486958,-0.1860021 0.2899833,-0.066146 0.5630333,-0.098425 0.8339667,-0.098425 0.490802,0 0.9294812,0.1137709 1.3046604,0.3384021 0.064294,0.037571 0.104775,0.080963 0.104775,0.1767417 C 3.738563,3.759466 3.6613046,3.8369885 3.5660547,3.8369885 Z M 3.8076187,3.1593896 c -0.054769,0 -0.090752,-0.020902 -0.122502,-0.039423 C 3.1181146,2.7836812 2.2740937,2.672027 1.5787687,2.8572353 c -0.011642,0.00344 -0.022225,0.00661 -0.03175,0.00979 -0.026194,0.0082 -0.050535,0.016404 -0.084931,0.016404 -0.1143,0 -0.2071688,-0.093398 -0.2071688,-0.2084917 0,-0.1108604 0.057944,-0.1883833 0.1624542,-0.2180167 0.2680229,-0.073554 0.5196417,-0.1222375 0.8818563,-0.1222375 0.5852583,0 1.1527895,0.1468438 1.5975541,0.4130146 0.080963,0.046302 0.1177396,0.1095375 0.1177396,0.2039938 0,0.1148291 -0.092869,0.2076979 -0.2069044,0.2076978 z M 4.0817271,2.3868062 c -0.051594,0 -0.083344,-0.012435 -0.1309688,-0.0381 -0.3844396,-0.2307166 -0.98425,-0.3680354 -1.6057562,-0.3680354 -0.32385,0 -0.6180667,0.035719 -0.8747125,0.1050396 -0.00873,0.00212 -0.016933,0.0045 -0.025929,0.00714 -0.027252,0.0082 -0.061383,0.017992 -0.096573,0.017992 -0.136525,0 -0.2431521,-0.10795 -0.2431521,-0.2457979 0,-0.1198562 0.067204,-0.2114021 0.1799167,-0.2447396 C 1.5943793,1.5287589 1.9510376,1.482457 2.344473,1.482457 c 0.7085542,0 1.3827125,0.1574271 1.8497021,0.4315354 0.087842,0.050006 0.1309687,0.1256771 0.1309687,0.2307167 0,0.1357312 -0.1068916,0.2420937 -0.2434166,0.2420937 z"
         id="path24251" />
    </symbol>
    <symbol
       id="google_drive">
      <title
         id="title24074">Google Drive</title>
      <path
         style="stroke-width:0.26458332"
         inkscape:connector-curvature="0"
         d="m 2.1629687,3.4395833 -0.879475,1.5875 h 3.1284334 l 0.8797396,-1.5875 z M 1.5517812,0.60827708 0,3.4168292 0.892175,5.0265542 2.4442208,2.2180021 Z M 5.1448229,3.175 3.5319229,0.26458333 H 1.7473083 L 3.3580917,3.175 Z"
         id="path24076" />
    </symbol>
    <symbol
       id="github_circle">
      <title
         id="title24064">Github (circle)</title>
      <path
         style="stroke-width:0.26458332"
         inkscape:connector-curvature="0"
         d="m 2.6498021,2.6323396 c 0,0 -0.00265,0 -0.00397,0 h -0.00397 c -0.3151188,0 -0.5926667,-0.080169 -0.7569729,0.070908 -0.098161,0.090488 -0.1394355,0.1994958 -0.1394355,0.3167063 0,0.4900083 0.3923771,0.5503333 0.896673,0.5503333 h 0.00767 c 0.5040312,0 0.8966729,-0.06059 0.8966729,-0.5503333 C 3.546475,2.9027438 3.5052,2.7934708 3.4070396,2.7032479 3.2424687,2.5521708 2.9649208,2.6323396 2.6498021,2.6323396 Z M 2.2206479,3.302 c -0.096044,0 -0.1735667,-0.10795 -0.1735667,-0.2407708 0,-0.1328209 0.077523,-0.2402417 0.1735667,-0.2402417 0.096044,0 0.1738313,0.1074208 0.1738313,0.2402417 C 2.3947437,3.19405 2.3169562,3.302 2.2206479,3.302 Z m 0.8501063,0 c -0.096044,0 -0.1738313,-0.10795 -0.1738313,-0.2407708 0,-0.1328209 0.077788,-0.2402417 0.1738313,-0.2402417 0.095779,0 0.1735666,0.1074208 0.1735666,0.2402417 C 3.2445854,3.19405 3.1667979,3.302 3.0707542,3.302 Z M 2.6458333,0.10583333 c -1.4028208,0 -2.53999997,1.13717917 -2.53999997,2.53999997 0,1.4028209 1.13717917,2.54 2.53999997,2.54 1.4028209,0 2.54,-1.1371791 2.54,-2.54 0,-1.4028208 -1.1371791,-2.53999997 -2.54,-2.53999997 z m 0.231775,3.58219377 c -0.045508,0 -0.1359958,0 -0.231775,5.291e-4 -0.095779,-5.291e-4 -0.1862666,-5.291e-4 -0.231775,-5.291e-4 -0.2010833,0 -0.9980083,-0.01561 -0.9980083,-0.9760479 0,-0.2206625 0.075671,-0.382323 0.1997604,-0.5172605 -0.019579,-0.048683 -0.020638,-0.3259666 0.084667,-0.5916083 0,0 0.2423583,0.026458 0.6088062,0.2780771 0.076465,-0.021431 0.2066396,-0.032279 0.33655,-0.032279 0.1299104,0 0.2598209,0.010848 0.3368146,0.032015 0.3664476,-0.2516193 0.608806,-0.2780777 0.608806,-0.2780777 0.1053041,0.2656417 0.1045104,0.5431896 0.084667,0.5916084 0.1240896,0.1349375 0.1997604,0.2965979 0.1997604,0.5172604 -2.645e-4,0.9609666 -0.7971895,0.9763125 -0.9982729,0.9763125 z"
         id="path24066" />
    </symbol>
  </defs>
  <sodipodi:namedview
     id="base"
     pagecolor="#ffffff"
     bordercolor="#666666"
     borderopacity="1.0"
     inkscape:pageopacity="0.0"
     inkscape:pageshadow="2"
     inkscape:zoom="1.5705929"
     inkscape:cx="358.8574"
     inkscape:cy="64.21244"
     inkscape:document-units="mm"
     inkscape:current-layer="layer1"
     showgrid="false"
     units="px"
     inkscape:window-width="1920"
     inkscape:window-height="1008"
     inkscape:window-x="0"
     inkscape:window-y="0"
     inkscape:window-maximized="1" />
  <metadata
     id="metadata5">
    <rdf:RDF>
      <cc:Work
         rdf:about="">
        <dc:format>image/svg+xml</dc:format>
        <dc:type
           rdf:resource="http://purl.org/dc/dcmitype/StillImage" />
        <dc:title></dc:title>
      </cc:Work>
    </rdf:RDF>
  </metadata>
  <g
     inkscape:label="Layer 1"
     inkscape:groupmode="layer"
     id="layer1"
     transform="translate(0,-257.31248)">
    <rect
       style="opacity:1;fill:none;fill-opacity:0.98039216;stroke:#000000;stroke-width:0.79374999;stroke-linecap:butt;stroke-linejoin:round;stroke-miterlimit:4;stroke-dasharray:none;stroke-dashoffset:2.99916458;stroke-opacity:1"
       id="rect27063"
       width="37.165367"
       height="31.924099"
       x="4.4853177"
       y="259.18631" />
    <rect
       y="259.18631"
       x="47.347847"
       height="31.924099"
       width="37.165367"
       id="rect27065"
       style="opacity:1;fill:none;fill-opacity:0.98039216;stroke:#000000;stroke-width:0.79374999;stroke-linecap:butt;stroke-linejoin:round;stroke-miterlimit:4;stroke-dasharray:none;stroke-dashoffset:2.99916458;stroke-opacity:1" />
    <rect
       style="opacity:1;fill:none;fill-opacity:0.98039216;stroke:#000000;stroke-width:0.79374999;stroke-linecap:butt;stroke-linejoin:round;stroke-miterlimit:4;stroke-dasharray:none;stroke-dashoffset:2.99916458;stroke-opacity:1"
       id="rect27067"
       width="37.165367"
       height="31.924099"
       x="90.210381"
       y="259.18631" />
    <use
       id="use27328"
       transform="matrix(5.9625477,0,0,5.9625477,7.2928826,259.37245)"
       style="fill:#000000;stroke:none"
       xlink:href="#spotify"
       x="0"
       y="0"
       width="100%"
       height="100%" />
    <use
       id="use27379"
       transform="matrix(5.6597402,0,0,5.6597402,50.955801,260.17363)"
       style="fill:#000000;stroke:none"
       xlink:href="#google_drive"
       x="0"
       y="0"
       width="100%"
       height="100%" />
    <use
       id="use27417"
       transform="matrix(5.338023,0,0,5.338023,94.669545,261.02484)"
       style="fill:#000000;stroke:none"
       xlink:href="#github_circle"
       x="0"
       y="0"
       width="100%"
       height="100%" />
    <path
       style="fill:none;fill-rule:evenodd;stroke:#16a7d8;stroke-width:1.866;stroke-linecap:butt;stroke-linejoin:miter;stroke-miterlimit:4;stroke-dasharray:none;stroke-opacity:1"
       d="M 4.0938599,294.4984 41.849877,294.2603"
       id="path27431"
       inkscape:connector-curvature="0" />
    <path
       style="fill:none;fill-rule:evenodd;stroke:#16a7d8;stroke-width:1.88161206;stroke-linecap:butt;stroke-linejoin:miter;stroke-miterlimit:4;stroke-dasharray:none;stroke-opacity:1"
       d="M 46.950972,294.37935 H 84.819087"
       id="path27433"
       inkscape:connector-curvature="0" />
    <path
       style="fill:none;fill-rule:evenodd;stroke:#16a7d8;stroke-width:1.87463439;stroke-linecap:butt;stroke-linejoin:miter;stroke-miterlimit:4;stroke-dasharray:none;stroke-opacity:1"
       d="m 89.815891,294.43887 37.735769,-0.11904"
       id="path27435"
       inkscape:connector-curvature="0" />
  </g>
</svg>
