<?xml version="1.0" encoding="UTF-8" standalone="no"?>
<svg
   width="212"
   height="22"
   viewBox="0 0 106.00065 11"
   fill="#123354"
   version="1.1"
   id="svg4"
   sodipodi:docname="zorin-os.svg"
   inkscape:version="1.2.2 (b0a8486541, 2022-12-01)"
   xmlns:inkscape="http://www.inkscape.org/namespaces/inkscape"
   xmlns:sodipodi="http://sodipodi.sourceforge.net/DTD/sodipodi-0.dtd"
   xmlns="http://www.w3.org/2000/svg"
   xmlns:svg="http://www.w3.org/2000/svg">
  <defs
     id="defs8" />
  <sodipodi:namedview
     id="namedview6"
     pagecolor="#ffffff"
     bordercolor="#000000"
     borderopacity="0.25"
     inkscape:showpageshadow="2"
     inkscape:pageopacity="0.0"
     inkscape:pagecheckerboard="0"
     inkscape:deskcolor="#d1d1d1"
     showgrid="false"
     inkscape:zoom="11.313708"
     inkscape:cx="103.72373"
     inkscape:cy="2.9168155"
     inkscape:window-width="3440"
     inkscape:window-height="1339"
     inkscape:window-x="0"
     inkscape:window-y="0"
     inkscape:window-maximized="1"
     inkscape:current-layer="svg4" />
  <path
     d="M 1.0000062,0.99997211 H 15.024668 V 2.8874127 L 5.1374604,8.0868741 H 15.024668 V 10.000028 H 1.0000062 V 8.1125885 L 10.887212,2.9131272 H 1.0000062 Z M 27.86132,10.000028 h -8.287769 q -0.574716,0 -1.087722,-0.2121436 Q 17.985686,9.5628827 17.598682,9.1874534 17.223251,8.8004499 16.99825,8.3003039 16.786105,7.7873009 16.786105,7.2125833 v -3.425165 q 0,-0.5747179 0.212145,-1.074864 0.225001,-0.5130031 0.600432,-0.8871484 0.387004,-0.3870025 0.887147,-0.6004324 0.513006,-0.22500139 1.087722,-0.22500139 h 8.287769 q 0.574718,0 1.074861,0.22500139 0.513007,0.2121443 0.887149,0.6004324 0.387003,0.3754309 0.600433,0.8871484 0.225002,0.5001461 0.225002,1.074864 v 3.425165 q 0,0.5747176 -0.225002,1.0877206 -0.212143,0.500146 -0.600433,0.8871495 -0.375428,0.3754293 -0.887149,0.600431 -0.500143,0.2121436 -1.074861,0.2121436 z m 0.875575,-3.4881644 v -2.012155 q 0,-0.3252877 -0.111857,-0.6004324 Q 28.513181,3.6112744 28.299751,3.3862728 28.099177,3.1612716 27.81246,3.0365563 27.524458,2.9118413 27.187602,2.9118413 h -6.876045 q -0.349714,0 -0.650575,0.1118581 -0.288005,0.1131435 -0.513005,0.3381449 -0.212143,0.2121442 -0.338143,0.5001461 -0.11186,0.2880018 -0.11186,0.624861 v 2.0378695 q 0,0.3124313 0.11186,0.6004327 0.111858,0.2880023 0.325287,0.513003 0.212145,0.2121449 0.500147,0.3381449 0.288001,0.1118589 0.637717,0.1118589 h 6.861899 q 0.362574,0 0.650576,-0.1247161 0.299572,-0.1247144 0.513004,-0.3381448 0.212143,-0.2250008 0.32529,-0.5130031 Q 28.73561,6.8242949 28.73561,6.5118636 Z M 46.347436,10.000028 H 44.009993 L 42.222838,7.4002987 H 34.57279 V 10.000028 H 32.659635 V 0.99997211 h 11.037927 q 0.587575,0 1.087722,0.21214429 0.513001,0.212144 0.887149,0.5618605 0.387001,0.3497168 0.60043,0.8125768 0.225002,0.4500026 0.225002,0.9244342 v 1.3127233 q 0,0.3998589 -0.174858,0.8125762 -0.162,0.4127166 -0.45,0.7624335 -0.275148,0.3497161 -0.650578,0.600432 -0.362572,0.2378588 -0.749577,0.3124313 z M 44.584711,4.3621363 V 3.9867054 q 0,-0.2121444 -0.100287,-0.4127169 -0.08742,-0.2005729 -0.262287,-0.3381452 -0.17486,-0.1504297 -0.425574,-0.2378585 -0.23786,-0.087429 -0.537434,-0.087429 h -8.687625 v 2.5765875 h 8.687625 q 0.362574,0 0.612007,-0.1002861 0.249428,-0.1002863 0.399857,-0.262287 0.162002,-0.1620016 0.237859,-0.362574 0.07458,-0.2005728 0.07458,-0.3998598 z m 4.424171,-3.36216419 h 1.913154 V 10.000028 H 49.008882 Z M 65.295128,7.8374443 V 0.99997211 h 1.911869 V 10.000028 H 64.806554 L 55.469637,3.1754146 V 10.000028 H 53.55648 V 0.99997211 h 2.412017 z m 20.885279,2.1625837 h -8.287769 q -0.57472,0 -1.087726,-0.2121436 Q 76.304767,9.5628827 75.917761,9.1874534 75.542335,8.8004499 75.317335,8.3003039 75.105187,7.7873009 75.105187,7.2125833 v -3.425165 q 0,-0.5747179 0.212148,-1.074864 0.225,-0.5130031 0.600426,-0.8871484 0.387006,-0.3870025 0.887151,-0.6004324 0.513006,-0.22500139 1.087726,-0.22500139 h 8.287769 q 0.574708,0 1.074863,0.22500139 0.513,0.2121443 0.887137,0.6004324 0.387009,0.3754309 0.600432,0.8871484 0.225,0.5001461 0.225,1.074864 v 3.425165 q 0,0.5747176 -0.225,1.0877206 -0.21213,0.500146 -0.600432,0.8871495 -0.375422,0.3754293 -0.887137,0.600431 -0.500155,0.2121436 -1.074863,0.2121436 z m 0.875578,-3.4881644 v -2.012155 q 0,-0.3252877 -0.11187,-0.6004324 Q 86.83227,3.6112744 86.618848,3.3862728 86.418261,3.1612716 86.131547,3.0365563 85.843555,2.9118413 85.506685,2.9118413 h -6.874758 q -0.349718,0 -0.65058,0.1118581 -0.287994,0.1131435 -0.513,0.3381449 -0.212146,0.2121442 -0.338146,0.5001461 -0.111862,0.2880018 -0.111862,0.624861 v 2.0378695 q 0,0.3124313 0.111862,0.6004327 0.111864,0.2880023 0.32529,0.513003 0.212139,0.2121449 0.500139,0.3381449 0.288009,0.1118589 0.637723,0.1118589 h 6.861892 q 0.362594,0 0.650594,-0.1247161 0.299561,-0.1247144 0.513009,-0.3381448 0.212137,-0.2250008 0.325267,-0.5130031 0.11187,-0.2880015 0.11187,-0.6004328 z M 105.02908,4.1499922 q 0,-0.5618608 -0.21213,-1.1250072 -0.21217,-0.5618608 -0.60044,-1.0118635 -0.37544,-0.450003 -0.91287,-0.7251475 -0.53741,-0.28800189 -1.18673,-0.28800189 h -8.462612 q -0.574722,0 -1.087722,0.22500139 -0.513,0.2121443 -0.9,0.6004324 -0.375426,0.3754309 -0.600426,0.8871484 -0.21214,0.5001461 -0.21214,1.0877214 0,0.6377182 0.237854,1.1250073 0.237842,0.4872892 0.637712,0.8125762 0.412722,0.3252876 0.937288,0.5001456 0.537434,0.1620016 1.112166,0.1620016 h 8.07561 q 0.29959,0 0.53743,0.024435 0.24944,0.024428 0.4127,0.111858 0.17487,0.074572 0.26228,0.2121443 0.0874,0.1247153 0.0874,0.3497167 0,0.1877152 -0.10029,0.3754312 -0.10027,0.1877154 -0.27514,0.325287 -0.17487,0.1247161 -0.41273,0.212145 -0.23784,0.074572 -0.51301,0.074572 h -7.549746 q -0.412713,0 -0.712278,-0.1118573 -0.29954,-0.1131442 -0.487262,-0.2880021 -0.174862,-0.1877163 -0.262288,-0.4127177 -0.07443,-0.2250006 -0.07443,-0.425574 h -1.911857 q 0,0.561861 0.212127,1.1250083 0.212138,0.5618595 0.600452,1.0118619 0.387,0.4500045 0.912844,0.7380062 0.537426,0.275143 1.188018,0.275143 h 8.46262 q 0.58759,0 1.08773,-0.212143 0.51301,-0.2250009 0.88715,-0.600431 0.387,-0.3870036 0.60045,-0.9000072 0.225,-0.5130039 0.225,-1.0877221 0,-0.6248601 -0.225,-1.1005777 -0.21217,-0.4872886 -0.60045,-0.7997196 -0.387,-0.325287 -0.9,-0.4872878 -0.513,-0.1620016 -1.11214,-0.1620016 h -8.21197 q -0.637732,0 -0.963,-0.1877157 -0.312462,-0.1877155 -0.312462,-0.5374317 0,-0.2494303 0.100296,-0.4371458 0.100296,-0.1877154 0.262278,-0.3124305 0.162018,-0.1375723 0.387018,-0.2005727 0.225,-0.063001 0.46287,-0.063001 h 7.67446 q 0.387,0 0.675,0.1118576 0.28801,0.1131437 0.47443,0.2995735 0.20058,0.1748582 0.288,0.3870024 0.0874,0.2121443 0.0874,0.4371456 z"
     id="path45284"
     style="stroke:#ffffff;stroke-width:2.00001;stroke-dasharray:none;stroke-opacity:0.5" />
  <path
     d="M 1.0000062,0.99997211 H 15.024668 V 2.8874127 L 5.1374604,8.0868741 H 15.024668 V 10.000028 H 1.0000062 V 8.1125885 L 10.887212,2.9131272 H 1.0000062 Z M 27.86132,10.000028 h -8.287769 q -0.574716,0 -1.087722,-0.2121436 Q 17.985686,9.5628827 17.598682,9.1874534 17.223251,8.8004499 16.99825,8.3003039 16.786105,7.7873009 16.786105,7.2125833 v -3.425165 q 0,-0.5747179 0.212145,-1.074864 0.225001,-0.5130031 0.600432,-0.8871484 0.387004,-0.3870025 0.887147,-0.6004324 0.513006,-0.22500139 1.087722,-0.22500139 h 8.287769 q 0.574718,0 1.074861,0.22500139 0.513007,0.2121443 0.887149,0.6004324 0.387003,0.3754309 0.600433,0.8871484 0.225002,0.5001461 0.225002,1.074864 v 3.425165 q 0,0.5747176 -0.225002,1.0877206 -0.212143,0.500146 -0.600433,0.8871495 -0.375428,0.3754293 -0.887149,0.600431 -0.500143,0.2121436 -1.074861,0.2121436 z m 0.875575,-3.4881644 v -2.012155 q 0,-0.3252877 -0.111857,-0.6004324 Q 28.513181,3.6112744 28.299751,3.3862728 28.099177,3.1612716 27.81246,3.0365563 27.524458,2.9118413 27.187602,2.9118413 h -6.876045 q -0.349714,0 -0.650575,0.1118581 -0.288005,0.1131435 -0.513005,0.3381449 -0.212143,0.2121442 -0.338143,0.5001461 -0.11186,0.2880018 -0.11186,0.624861 v 2.0378695 q 0,0.3124313 0.11186,0.6004327 0.111858,0.2880023 0.325287,0.513003 0.212145,0.2121449 0.500147,0.3381449 0.288001,0.1118589 0.637717,0.1118589 h 6.861899 q 0.362574,0 0.650576,-0.1247161 0.299572,-0.1247144 0.513004,-0.3381448 0.212143,-0.2250008 0.32529,-0.5130031 Q 28.73561,6.8242949 28.73561,6.5118636 Z M 46.347436,10.000028 H 44.009993 L 42.222838,7.4002987 H 34.57279 V 10.000028 H 32.659635 V 0.99997211 h 11.037927 q 0.587575,0 1.087722,0.21214429 0.513001,0.212144 0.887149,0.5618605 0.387001,0.3497168 0.60043,0.8125768 0.225002,0.4500026 0.225002,0.9244342 v 1.3127233 q 0,0.3998589 -0.174858,0.8125762 -0.162,0.4127166 -0.45,0.7624335 -0.275148,0.3497161 -0.650578,0.600432 -0.362572,0.2378588 -0.749577,0.3124313 z M 44.584711,4.3621363 V 3.9867054 q 0,-0.2121444 -0.100287,-0.4127169 -0.08742,-0.2005729 -0.262287,-0.3381452 -0.17486,-0.1504297 -0.425574,-0.2378585 -0.23786,-0.087429 -0.537434,-0.087429 h -8.687625 v 2.5765875 h 8.687625 q 0.362574,0 0.612007,-0.1002861 0.249428,-0.1002863 0.399857,-0.262287 0.162002,-0.1620016 0.237859,-0.362574 0.07458,-0.2005728 0.07458,-0.3998598 z m 4.424171,-3.36216419 h 1.913154 V 10.000028 H 49.008882 Z M 65.295128,7.8374443 V 0.99997211 h 1.911869 V 10.000028 H 64.806554 L 55.469637,3.1754146 V 10.000028 H 53.55648 V 0.99997211 h 2.412017 z m 20.885279,2.1625837 h -8.287769 q -0.57472,0 -1.087726,-0.2121436 Q 76.304767,9.5628827 75.917761,9.1874534 75.542335,8.8004499 75.317335,8.3003039 75.105187,7.7873009 75.105187,7.2125833 v -3.425165 q 0,-0.5747179 0.212148,-1.074864 0.225,-0.5130031 0.600426,-0.8871484 0.387006,-0.3870025 0.887151,-0.6004324 0.513006,-0.22500139 1.087726,-0.22500139 h 8.287769 q 0.574708,0 1.074863,0.22500139 0.513,0.2121443 0.887137,0.6004324 0.387009,0.3754309 0.600432,0.8871484 0.225,0.5001461 0.225,1.074864 v 3.425165 q 0,0.5747176 -0.225,1.0877206 -0.21213,0.500146 -0.600432,0.8871495 -0.375422,0.3754293 -0.887137,0.600431 -0.500155,0.2121436 -1.074863,0.2121436 z m 0.875578,-3.4881644 v -2.012155 q 0,-0.3252877 -0.11187,-0.6004324 Q 86.83227,3.6112744 86.618848,3.3862728 86.418261,3.1612716 86.131547,3.0365563 85.843555,2.9118413 85.506685,2.9118413 h -6.874758 q -0.349718,0 -0.65058,0.1118581 -0.287994,0.1131435 -0.513,0.3381449 -0.212146,0.2121442 -0.338146,0.5001461 -0.111862,0.2880018 -0.111862,0.624861 v 2.0378695 q 0,0.3124313 0.111862,0.6004327 0.111864,0.2880023 0.32529,0.513003 0.212139,0.2121449 0.500139,0.3381449 0.288009,0.1118589 0.637723,0.1118589 h 6.861892 q 0.362594,0 0.650594,-0.1247161 0.299561,-0.1247144 0.513009,-0.3381448 0.212137,-0.2250008 0.325267,-0.5130031 0.11187,-0.2880015 0.11187,-0.6004328 z M 105.02908,4.1499922 q 0,-0.5618608 -0.21213,-1.1250072 -0.21217,-0.5618608 -0.60044,-1.0118635 -0.37544,-0.450003 -0.91287,-0.7251475 -0.53741,-0.28800189 -1.18673,-0.28800189 h -8.462612 q -0.574722,0 -1.087722,0.22500139 -0.513,0.2121443 -0.9,0.6004324 -0.375426,0.3754309 -0.600426,0.8871484 -0.21214,0.5001461 -0.21214,1.0877214 0,0.6377182 0.237854,1.1250073 0.237842,0.4872892 0.637712,0.8125762 0.412722,0.3252876 0.937288,0.5001456 0.537434,0.1620016 1.112166,0.1620016 h 8.07561 q 0.29959,0 0.53743,0.024435 0.24944,0.024428 0.4127,0.111858 0.17487,0.074572 0.26228,0.2121443 0.0874,0.1247153 0.0874,0.3497167 0,0.1877152 -0.10029,0.3754312 -0.10027,0.1877154 -0.27514,0.325287 -0.17487,0.1247161 -0.41273,0.212145 -0.23784,0.074572 -0.51301,0.074572 h -7.549746 q -0.412713,0 -0.712278,-0.1118573 -0.29954,-0.1131442 -0.487262,-0.2880021 -0.174862,-0.1877163 -0.262288,-0.4127177 -0.07443,-0.2250006 -0.07443,-0.425574 h -1.911857 q 0,0.561861 0.212127,1.1250083 0.212138,0.5618595 0.600452,1.0118619 0.387,0.4500045 0.912844,0.7380062 0.537426,0.275143 1.188018,0.275143 h 8.46262 q 0.58759,0 1.08773,-0.212143 0.51301,-0.2250009 0.88715,-0.600431 0.387,-0.3870036 0.60045,-0.9000072 0.225,-0.5130039 0.225,-1.0877221 0,-0.6248601 -0.225,-1.1005777 -0.21217,-0.4872886 -0.60045,-0.7997196 -0.387,-0.325287 -0.9,-0.4872878 -0.513,-0.1620016 -1.11214,-0.1620016 h -8.21197 q -0.637732,0 -0.963,-0.1877157 -0.312462,-0.1877155 -0.312462,-0.5374317 0,-0.2494303 0.100296,-0.4371458 0.100296,-0.1877154 0.262278,-0.3124305 0.162018,-0.1375723 0.387018,-0.2005727 0.225,-0.063001 0.46287,-0.063001 h 7.67446 q 0.387,0 0.675,0.1118576 0.28801,0.1131437 0.47443,0.2995735 0.20058,0.1748582 0.288,0.3870024 0.0874,0.2121443 0.0874,0.4371456 z"
     id="path2"
     style="stroke-width:0.947387;stroke-dasharray:none" />
  <path
     d="M 1.0000062,0.99997211 H 15.024668 V 2.8874127 L 5.1374604,8.0868741 H 15.024668 V 10.000028 H 1.0000062 V 8.1125885 L 10.887212,2.9131272 H 1.0000062 Z M 27.86132,10.000028 h -8.287769 q -0.574716,0 -1.087722,-0.2121436 Q 17.985686,9.5628827 17.598682,9.1874534 17.223251,8.8004499 16.99825,8.3003039 16.786105,7.7873009 16.786105,7.2125833 v -3.425165 q 0,-0.5747179 0.212145,-1.074864 0.225001,-0.5130031 0.600432,-0.8871484 0.387004,-0.3870025 0.887147,-0.6004324 0.513006,-0.22500139 1.087722,-0.22500139 h 8.287769 q 0.574718,0 1.074861,0.22500139 0.513007,0.2121443 0.887149,0.6004324 0.387003,0.3754309 0.600433,0.8871484 0.225002,0.5001461 0.225002,1.074864 v 3.425165 q 0,0.5747176 -0.225002,1.0877206 -0.212143,0.500146 -0.600433,0.8871495 -0.375428,0.3754293 -0.887149,0.600431 -0.500143,0.2121436 -1.074861,0.2121436 z m 0.875575,-3.4881644 v -2.012155 q 0,-0.3252877 -0.111857,-0.6004324 Q 28.513181,3.6112744 28.299751,3.3862728 28.099177,3.1612716 27.81246,3.0365563 27.524458,2.9118413 27.187602,2.9118413 h -6.876045 q -0.349714,0 -0.650575,0.1118581 -0.288005,0.1131435 -0.513005,0.3381449 -0.212143,0.2121442 -0.338143,0.5001461 -0.11186,0.2880018 -0.11186,0.624861 v 2.0378695 q 0,0.3124313 0.11186,0.6004327 0.111858,0.2880023 0.325287,0.513003 0.212145,0.2121449 0.500147,0.3381449 0.288001,0.1118589 0.637717,0.1118589 h 6.861899 q 0.362574,0 0.650576,-0.1247161 0.299572,-0.1247144 0.513004,-0.3381448 0.212143,-0.2250008 0.32529,-0.5130031 Q 28.73561,6.8242949 28.73561,6.5118636 Z M 46.347436,10.000028 H 44.009993 L 42.222838,7.4002987 H 34.57279 V 10.000028 H 32.659635 V 0.99997211 h 11.037927 q 0.587575,0 1.087722,0.21214429 0.513001,0.212144 0.887149,0.5618605 0.387001,0.3497168 0.60043,0.8125768 0.225002,0.4500026 0.225002,0.9244342 v 1.3127233 q 0,0.3998589 -0.174858,0.8125762 -0.162,0.4127166 -0.45,0.7624335 -0.275148,0.3497161 -0.650578,0.600432 -0.362572,0.2378588 -0.749577,0.3124313 z M 44.584711,4.3621363 V 3.9867054 q 0,-0.2121444 -0.100287,-0.4127169 -0.08742,-0.2005729 -0.262287,-0.3381452 -0.17486,-0.1504297 -0.425574,-0.2378585 -0.23786,-0.087429 -0.537434,-0.087429 h -8.687625 v 2.5765875 h 8.687625 q 0.362574,0 0.612007,-0.1002861 0.249428,-0.1002863 0.399857,-0.262287 0.162002,-0.1620016 0.237859,-0.362574 0.07458,-0.2005728 0.07458,-0.3998598 z m 4.424171,-3.36216419 h 1.913154 V 10.000028 H 49.008882 Z M 65.295128,7.8374443 V 0.99997211 h 1.911869 V 10.000028 H 64.806554 L 55.469637,3.1754146 V 10.000028 H 53.55648 V 0.99997211 h 2.412017 z m 20.885279,2.1625837 h -8.287769 q -0.57472,0 -1.087726,-0.2121436 Q 76.304767,9.5628827 75.917761,9.1874534 75.542335,8.8004499 75.317335,8.3003039 75.105187,7.7873009 75.105187,7.2125833 v -3.425165 q 0,-0.5747179 0.212148,-1.074864 0.225,-0.5130031 0.600426,-0.8871484 0.387006,-0.3870025 0.887151,-0.6004324 0.513006,-0.22500139 1.087726,-0.22500139 h 8.287769 q 0.574708,0 1.074863,0.22500139 0.513,0.2121443 0.887137,0.6004324 0.387009,0.3754309 0.600432,0.8871484 0.225,0.5001461 0.225,1.074864 v 3.425165 q 0,0.5747176 -0.225,1.0877206 -0.21213,0.500146 -0.600432,0.8871495 -0.375422,0.3754293 -0.887137,0.600431 -0.500155,0.2121436 -1.074863,0.2121436 z m 0.875578,-3.4881644 v -2.012155 q 0,-0.3252877 -0.11187,-0.6004324 Q 86.83227,3.6112744 86.618848,3.3862728 86.418261,3.1612716 86.131547,3.0365563 85.843555,2.9118413 85.506685,2.9118413 h -6.874758 q -0.349718,0 -0.65058,0.1118581 -0.287994,0.1131435 -0.513,0.3381449 -0.212146,0.2121442 -0.338146,0.5001461 -0.111862,0.2880018 -0.111862,0.624861 v 2.0378695 q 0,0.3124313 0.111862,0.6004327 0.111864,0.2880023 0.32529,0.513003 0.212139,0.2121449 0.500139,0.3381449 0.288009,0.1118589 0.637723,0.1118589 h 6.861892 q 0.362594,0 0.650594,-0.1247161 0.299561,-0.1247144 0.513009,-0.3381448 0.212137,-0.2250008 0.325267,-0.5130031 0.11187,-0.2880015 0.11187,-0.6004328 z M 105.02908,4.1499922 q 0,-0.5618608 -0.21213,-1.1250072 -0.21217,-0.5618608 -0.60044,-1.0118635 -0.37544,-0.450003 -0.91287,-0.7251475 -0.53741,-0.28800189 -1.18673,-0.28800189 h -8.462612 q -0.574722,0 -1.087722,0.22500139 -0.513,0.2121443 -0.9,0.6004324 -0.375426,0.3754309 -0.600426,0.8871484 -0.21214,0.5001461 -0.21214,1.0877214 0,0.6377182 0.237854,1.1250073 0.237842,0.4872892 0.637712,0.8125762 0.412722,0.3252876 0.937288,0.5001456 0.537434,0.1620016 1.112166,0.1620016 h 8.07561 q 0.29959,0 0.53743,0.024435 0.24944,0.024428 0.4127,0.111858 0.17487,0.074572 0.26228,0.2121443 0.0874,0.1247153 0.0874,0.3497167 0,0.1877152 -0.10029,0.3754312 -0.10027,0.1877154 -0.27514,0.325287 -0.17487,0.1247161 -0.41273,0.212145 -0.23784,0.074572 -0.51301,0.074572 h -7.549746 q -0.412713,0 -0.712278,-0.1118573 -0.29954,-0.1131442 -0.487262,-0.2880021 -0.174862,-0.1877163 -0.262288,-0.4127177 -0.07443,-0.2250006 -0.07443,-0.425574 h -1.911857 q 0,0.561861 0.212127,1.1250083 0.212138,0.5618595 0.600452,1.0118619 0.387,0.4500045 0.912844,0.7380062 0.537426,0.275143 1.188018,0.275143 h 8.46262 q 0.58759,0 1.08773,-0.212143 0.51301,-0.2250009 0.88715,-0.600431 0.387,-0.3870036 0.60045,-0.9000072 0.225,-0.5130039 0.225,-1.0877221 0,-0.6248601 -0.225,-1.1005777 -0.21217,-0.4872886 -0.60045,-0.7997196 -0.387,-0.325287 -0.9,-0.4872878 -0.513,-0.1620016 -1.11214,-0.1620016 h -8.21197 q -0.637732,0 -0.963,-0.1877157 -0.312462,-0.1877155 -0.312462,-0.5374317 0,-0.2494303 0.100296,-0.4371458 0.100296,-0.1877154 0.262278,-0.3124305 0.162018,-0.1375723 0.387018,-0.2005727 0.225,-0.063001 0.46287,-0.063001 h 7.67446 q 0.387,0 0.675,0.1118576 0.28801,0.1131437 0.47443,0.2995735 0.20058,0.1748582 0.288,0.3870024 0.0874,0.2121443 0.0874,0.4371456 z"
     id="path38710"
     style="stroke-width:0.947387;stroke-dasharray:none" />
</svg>
